<svg width="152" height="48" viewBox="0 0 152 48" fill="none" xmlns="http://www.w3.org/2000/svg">
<path d="M5.61308 45.1306H0V44.2063H5.61308V45.1306Z" fill="black"/>
<path d="M13.2339 40.9682C13.2339 41.4416 13.1768 41.8843 13.0625 42.2965C12.9482 42.7046 12.7809 43.0596 12.5606 43.3616C12.3402 43.6635 12.0668 43.9002 11.7403 44.0716C11.418 44.243 11.0486 44.3287 10.6324 44.3287C10.2284 44.3287 9.87135 44.2634 9.56121 44.1328C9.25515 44.0022 8.99195 43.8145 8.77159 43.5697V46.7527H7.63917V37.5832H8.67365L8.72874 38.3055C8.9491 38.0321 9.21435 37.824 9.52448 37.6812C9.8387 37.5343 10.2019 37.4608 10.614 37.4608C11.0384 37.4608 11.4139 37.5445 11.7403 37.7118C12.0668 37.8791 12.3402 38.1117 12.5606 38.4096C12.7809 38.7075 12.9482 39.0645 13.0625 39.4808C13.1768 39.8929 13.2339 40.3459 13.2339 40.8397V40.9682ZM12.1015 40.8397C12.1015 40.5173 12.0648 40.2112 11.9913 39.9215C11.9219 39.6277 11.8117 39.3706 11.6608 39.1502C11.5139 38.9258 11.3261 38.7483 11.0976 38.6177C10.8691 38.4871 10.5957 38.4218 10.2774 38.4218C9.9142 38.4218 9.60814 38.5075 9.35921 38.6789C9.11437 38.8462 8.91849 39.0625 8.77159 39.3277V42.5169C8.91849 42.778 9.11437 42.9923 9.35921 43.1596C9.60406 43.3228 9.9142 43.4044 10.2896 43.4044C10.6038 43.4044 10.8752 43.3391 11.1037 43.2085C11.3323 43.0739 11.52 42.8943 11.6669 42.6699C11.8138 42.4454 11.9219 42.1863 11.9913 41.8925C12.0648 41.5987 12.1015 41.2906 12.1015 40.9682V40.8397Z" fill="black"/>
<path d="M14.856 40.8335C14.856 40.3561 14.9254 39.9133 15.0641 39.5053C15.2029 39.0931 15.4008 38.736 15.6579 38.4341C15.919 38.1321 16.2353 37.8954 16.6066 37.724C16.978 37.5485 17.3963 37.4608 17.8615 37.4608C18.3308 37.4608 18.7511 37.5485 19.1224 37.724C19.4979 37.8954 19.8141 38.1321 20.0712 38.4341C20.3324 38.736 20.5323 39.0931 20.6711 39.5053C20.8098 39.9133 20.8792 40.3561 20.8792 40.8335V40.9682C20.8792 41.4457 20.8098 41.8884 20.6711 42.2965C20.5323 42.7046 20.3324 43.0596 20.0712 43.3616C19.8141 43.6635 19.4999 43.9002 19.1285 44.0716C18.7572 44.243 18.3389 44.3287 17.8737 44.3287C17.4044 44.3287 16.9821 44.243 16.6066 44.0716C16.2353 43.9002 15.919 43.6635 15.6579 43.3616C15.4008 43.0596 15.2029 42.7046 15.0641 42.2965C14.9254 41.8884 14.856 41.4457 14.856 40.9682V40.8335ZM15.9884 40.9682C15.9884 41.2947 16.0272 41.6068 16.1047 41.9047C16.1822 42.1986 16.2985 42.4577 16.4536 42.6821C16.6128 42.9066 16.8107 43.0841 17.0474 43.2147C17.284 43.3452 17.5595 43.4105 17.8737 43.4105C18.1838 43.4105 18.4552 43.3452 18.6878 43.2147C18.9245 43.0841 19.1204 42.9066 19.2754 42.6821C19.4346 42.4577 19.5529 42.1986 19.6305 41.9047C19.708 41.6068 19.7468 41.2947 19.7468 40.9682V40.8335C19.7468 40.5112 19.706 40.2031 19.6244 39.9093C19.5468 39.6114 19.4285 39.3502 19.2693 39.1257C19.1143 38.9013 18.9184 38.7238 18.6817 38.5932C18.4491 38.4585 18.1757 38.3912 17.8615 38.3912C17.5472 38.3912 17.2738 38.4585 17.0412 38.5932C16.8086 38.7238 16.6128 38.9013 16.4536 39.1257C16.2985 39.3502 16.1822 39.6114 16.1047 39.9093C16.0272 40.2031 15.9884 40.5112 15.9884 40.8335V40.9682Z" fill="black"/>
<path d="M27.0432 37.4608C27.1493 37.4608 27.2594 37.4649 27.3737 37.473C27.488 37.4771 27.5961 37.4873 27.6981 37.5036C27.8042 37.5159 27.9001 37.5322 27.9858 37.5526C28.0756 37.573 28.1491 37.5955 28.2062 37.6199L28.0532 38.7279C27.8328 38.6789 27.6226 38.6442 27.4227 38.6238C27.2268 38.5993 27.0207 38.5871 26.8044 38.5871C26.2739 38.5871 25.8434 38.7075 25.5129 38.9482C25.1864 39.189 24.9457 39.5257 24.7906 39.9582V44.2063H23.6521V37.5832H24.7294L24.7845 38.6361C25.0538 38.2729 25.3762 37.9872 25.7516 37.7791C26.1311 37.5669 26.5616 37.4608 27.0432 37.4608Z" fill="black"/>
<path d="M32.9133 35.9795V37.5832H35.4352V38.4585H32.9133V42.0578C32.9133 42.3149 32.946 42.5271 33.0113 42.6944C33.0766 42.8617 33.1663 42.9963 33.2806 43.0984C33.3949 43.1963 33.5254 43.2657 33.6724 43.3065C33.8233 43.3473 33.9825 43.3677 34.1498 43.3677C34.2722 43.3677 34.3987 43.3616 34.5293 43.3493C34.6599 43.333 34.7864 43.3146 34.9088 43.2942C35.0353 43.2738 35.1516 43.2534 35.2577 43.233C35.3679 43.2085 35.4577 43.1881 35.5271 43.1718L35.6862 43.9737C35.5924 44.0308 35.4781 44.0818 35.3434 44.1267C35.2088 44.1675 35.0619 44.2022 34.9027 44.2308C34.7436 44.2634 34.5742 44.2879 34.3946 44.3042C34.2192 44.3205 34.0437 44.3287 33.8682 44.3287C33.5744 44.3287 33.299 44.2879 33.0419 44.2063C32.7889 44.1206 32.5685 43.988 32.3808 43.8084C32.1931 43.6248 32.0441 43.3901 31.934 43.1045C31.8279 42.8147 31.7748 42.4658 31.7748 42.0578V38.4585H30.0364V37.5832H31.7748V35.9795H32.9133Z" fill="black"/>
<path d="M39.4507 44.2063V38.4585H37.6266V37.5832H39.4507V37.118C39.4507 36.6936 39.5119 36.3223 39.6343 36.004C39.7608 35.6816 39.9363 35.4123 40.1608 35.196C40.3893 34.9797 40.6627 34.8165 40.981 34.7063C41.2993 34.5961 41.6543 34.541 42.0461 34.541C42.3154 34.541 42.5766 34.5635 42.8296 34.6083C43.0867 34.6532 43.3499 34.7104 43.6192 34.7797L43.4845 35.7163C43.3172 35.6591 43.1213 35.6102 42.8969 35.5694C42.6765 35.5245 42.4399 35.502 42.1869 35.502C41.6564 35.5061 41.2564 35.6408 40.9871 35.906C40.7219 36.1713 40.5892 36.5753 40.5892 37.118V37.5832H43.1418V38.4585H40.5892V44.2063H39.4507Z" fill="black"/>
<path d="M44.972 40.8335C44.972 40.3561 45.0413 39.9133 45.1801 39.5053C45.3188 39.0931 45.5167 38.736 45.7738 38.4341C46.035 38.1321 46.3513 37.8954 46.7226 37.724C47.094 37.5485 47.5122 37.4608 47.9774 37.4608C48.4467 37.4608 48.8671 37.5485 49.2384 37.724C49.6138 37.8954 49.9301 38.1321 50.1872 38.4341C50.4483 38.736 50.6483 39.0931 50.787 39.5053C50.9258 39.9133 50.9952 40.3561 50.9952 40.8335V40.9682C50.9952 41.4457 50.9258 41.8884 50.787 42.2965C50.6483 42.7046 50.4483 43.0596 50.1872 43.3616C49.9301 43.6635 49.6159 43.9002 49.2445 44.0716C48.8732 44.243 48.4549 44.3287 47.9897 44.3287C47.5204 44.3287 47.098 44.243 46.7226 44.0716C46.3513 43.9002 46.035 43.6635 45.7738 43.3616C45.5167 43.0596 45.3188 42.7046 45.1801 42.2965C45.0413 41.8884 44.972 41.4457 44.972 40.9682V40.8335ZM46.1044 40.9682C46.1044 41.2947 46.1431 41.6068 46.2207 41.9047C46.2982 42.1986 46.4145 42.4577 46.5696 42.6821C46.7287 42.9066 46.9267 43.0841 47.1633 43.2147C47.4 43.3452 47.6755 43.4105 47.9897 43.4105C48.2998 43.4105 48.5712 43.3452 48.8038 43.2147C49.0405 43.0841 49.2364 42.9066 49.3914 42.6821C49.5506 42.4577 49.6689 42.1986 49.7465 41.9047C49.824 41.6068 49.8628 41.2947 49.8628 40.9682V40.8335C49.8628 40.5112 49.8219 40.2031 49.7403 39.9093C49.6628 39.6114 49.5445 39.3502 49.3853 39.1257C49.2302 38.9013 49.0344 38.7238 48.7977 38.5932C48.5651 38.4585 48.2917 38.3912 47.9774 38.3912C47.6632 38.3912 47.3898 38.4585 47.1572 38.5932C46.9246 38.7238 46.7287 38.9013 46.5696 39.1257C46.4145 39.3502 46.2982 39.6114 46.2207 39.9093C46.1431 40.2031 46.1044 40.5112 46.1044 40.8335V40.9682Z" fill="black"/>
<path d="M52.9968 34.8042H56.3818V43.2269H58.5425V44.2063H52.9968V43.2269H55.2494V35.7897H52.9968V34.8042Z" fill="black"/>
<path d="M60.5258 37.5832H63.9108V43.2269H66.0715V44.2063H60.5258V43.2269H62.7783V38.5687H60.5258V37.5832ZM62.6314 35.8448C62.6314 35.6571 62.6865 35.5 62.7967 35.3735C62.911 35.2429 63.0824 35.1776 63.3109 35.1776C63.5353 35.1776 63.7047 35.2429 63.8189 35.3735C63.9332 35.5 63.9903 35.6571 63.9903 35.8448C63.9903 36.0285 63.9332 36.1815 63.8189 36.3039C63.7047 36.4263 63.5353 36.4875 63.3109 36.4875C63.0824 36.4875 62.911 36.4263 62.7967 36.3039C62.6865 36.1815 62.6314 36.0285 62.6314 35.8448Z" fill="black"/>
<path d="M67.559 40.8335C67.559 40.3561 67.6283 39.9133 67.7671 39.5053C67.9058 39.0931 68.1037 38.736 68.3608 38.4341C68.622 38.1321 68.9382 37.8954 69.3096 37.724C69.6809 37.5485 70.0992 37.4608 70.5644 37.4608C71.0337 37.4608 71.454 37.5485 71.8254 37.724C72.2008 37.8954 72.5171 38.1321 72.7742 38.4341C73.0353 38.736 73.2353 39.0931 73.374 39.5053C73.5128 39.9133 73.5821 40.3561 73.5821 40.8335V40.9682C73.5821 41.4457 73.5128 41.8884 73.374 42.2965C73.2353 42.7046 73.0353 43.0596 72.7742 43.3616C72.5171 43.6635 72.2029 43.9002 71.8315 44.0716C71.4602 44.243 71.0419 44.3287 70.5767 44.3287C70.1074 44.3287 69.685 44.243 69.3096 44.0716C68.9382 43.9002 68.622 43.6635 68.3608 43.3616C68.1037 43.0596 67.9058 42.7046 67.7671 42.2965C67.6283 41.8884 67.559 41.4457 67.559 40.9682V40.8335ZM68.6914 40.9682C68.6914 41.2947 68.7301 41.6068 68.8077 41.9047C68.8852 42.1986 69.0015 42.4577 69.1566 42.6821C69.3157 42.9066 69.5136 43.0841 69.7503 43.2147C69.987 43.3452 70.2624 43.4105 70.5767 43.4105C70.8868 43.4105 71.1582 43.3452 71.3908 43.2147C71.6275 43.0841 71.8233 42.9066 71.9784 42.6821C72.1376 42.4577 72.2559 42.1986 72.3334 41.9047C72.411 41.6068 72.4497 41.2947 72.4497 40.9682V40.8335C72.4497 40.5112 72.4089 40.2031 72.3273 39.9093C72.2498 39.6114 72.1314 39.3502 71.9723 39.1257C71.8172 38.9013 71.6213 38.7238 71.3847 38.5932C71.1521 38.4585 70.8786 38.3912 70.5644 38.3912C70.2502 38.3912 69.9768 38.4585 69.7442 38.5932C69.5116 38.7238 69.3157 38.9013 69.1566 39.1257C69.0015 39.3502 68.8852 39.6114 68.8077 39.9093C68.7301 40.2031 68.6914 40.5112 68.6914 40.8335V40.9682Z" fill="black"/>
<path d="M85.7571 43.4105C85.9611 43.4105 86.159 43.3779 86.3508 43.3126C86.5467 43.2473 86.7201 43.1575 86.8711 43.0433C87.0221 42.9249 87.1425 42.7882 87.2323 42.6332C87.3261 42.474 87.3751 42.3026 87.3792 42.119H88.4504C88.4463 42.4128 88.3688 42.6944 88.2178 42.9637C88.0709 43.2289 87.873 43.4636 87.624 43.6676C87.3751 43.8676 87.0894 44.0288 86.7671 44.1512C86.4447 44.2695 86.108 44.3287 85.7571 44.3287C85.2551 44.3287 84.8165 44.2389 84.441 44.0594C84.0656 43.8798 83.7514 43.6391 83.4984 43.3371C83.2495 43.031 83.0617 42.6801 82.9352 42.2843C82.8087 41.8843 82.7455 41.464 82.7455 41.0233V40.7662C82.7455 40.3296 82.8087 39.9113 82.9352 39.5114C83.0617 39.1115 83.2495 38.7605 83.4984 38.4585C83.7514 38.1525 84.0656 37.9097 84.441 37.7301C84.8165 37.5506 85.2551 37.4608 85.7571 37.4608C86.1488 37.4608 86.5079 37.524 86.8344 37.6506C87.1649 37.773 87.4486 37.9423 87.6852 38.1586C87.926 38.3708 88.1137 38.6238 88.2484 38.9176C88.383 39.2114 88.4504 39.5257 88.4504 39.8603H87.3792C87.3751 39.6603 87.3302 39.4726 87.2445 39.2971C87.1629 39.1176 87.0507 38.9605 86.9079 38.8258C86.765 38.6911 86.5936 38.585 86.3937 38.5075C86.1978 38.43 85.9856 38.3912 85.7571 38.3912C85.4061 38.3912 85.1103 38.4626 84.8695 38.6054C84.6328 38.7442 84.441 38.9278 84.2941 39.1564C84.1472 39.3808 84.0411 39.6338 83.9758 39.9154C83.9146 40.1969 83.884 40.4806 83.884 40.7662V41.0233C83.884 41.313 83.9146 41.6007 83.9758 41.8864C84.0411 42.1679 84.1452 42.423 84.288 42.6515C84.4349 42.876 84.6267 43.0596 84.8634 43.2024C85.1042 43.3412 85.4021 43.4105 85.7571 43.4105Z" fill="black"/>
<path d="M91.5966 38.5687C91.8333 38.2219 92.1251 37.9525 92.472 37.7607C92.8188 37.5649 93.2085 37.4649 93.6411 37.4608C93.988 37.4608 94.3022 37.5118 94.5838 37.6138C94.8694 37.7118 95.1122 37.8668 95.3122 38.079C95.5121 38.2912 95.6652 38.5606 95.7713 38.887C95.8814 39.2094 95.9365 39.593 95.9365 40.0378V44.2063H94.8041V40.0256C94.8041 39.4828 94.6735 39.0788 94.4124 38.8136C94.1553 38.5483 93.786 38.4177 93.3044 38.4218C92.9412 38.4218 92.6107 38.5116 92.3128 38.6911C92.019 38.8666 91.7803 39.1013 91.5966 39.3951V44.2063H90.4642V34.8042H91.5966V38.5687Z" fill="black"/>
<path d="M102.345 44.2063C102.3 44.1206 102.264 44.0145 102.235 43.888C102.211 43.7574 102.192 43.6227 102.18 43.484C102.066 43.5983 101.937 43.7064 101.794 43.8084C101.656 43.9104 101.501 44.0002 101.329 44.0777C101.162 44.1553 100.982 44.2165 100.791 44.2614C100.599 44.3063 100.395 44.3287 100.178 44.3287C99.8275 44.3287 99.5092 44.2777 99.2236 44.1757C98.942 44.0737 98.7012 43.937 98.5013 43.7656C98.3054 43.5901 98.1524 43.384 98.0422 43.1473C97.9361 42.9066 97.883 42.6474 97.883 42.3699C97.883 42.0068 97.9545 41.6885 98.0973 41.415C98.2442 41.1416 98.4503 40.9152 98.7155 40.7356C98.9808 40.552 99.2991 40.4153 99.6704 40.3255C100.046 40.2357 100.464 40.1908 100.925 40.1908H102.162V39.6705C102.162 39.4706 102.125 39.291 102.052 39.1319C101.978 38.9727 101.874 38.8381 101.739 38.7279C101.605 38.6136 101.439 38.5259 101.244 38.4647C101.052 38.4035 100.835 38.3728 100.595 38.3728C100.37 38.3728 100.168 38.4014 99.9887 38.4585C99.8133 38.5157 99.6643 38.5912 99.5419 38.685C99.4195 38.7789 99.3236 38.8911 99.2542 39.0217C99.1889 39.1482 99.1562 39.2808 99.1562 39.4196H98.0177C98.0218 39.1788 98.083 38.9421 98.2013 38.7095C98.3238 38.4769 98.4972 38.2688 98.7216 38.0852C98.9502 37.8974 99.2256 37.7464 99.548 37.6322C99.8745 37.5179 100.244 37.4608 100.656 37.4608C101.031 37.4608 101.38 37.5077 101.703 37.6016C102.025 37.6914 102.303 37.8301 102.535 38.0178C102.772 38.2015 102.957 38.432 103.092 38.7095C103.227 38.987 103.294 39.3114 103.294 39.6828V42.7617C103.294 42.9821 103.315 43.2167 103.355 43.4656C103.396 43.7105 103.453 43.9247 103.527 44.1083V44.2063H102.345ZM100.344 43.3432C100.564 43.3432 100.77 43.3146 100.962 43.2575C101.154 43.2004 101.327 43.1249 101.482 43.031C101.641 42.9372 101.778 42.8311 101.892 42.7127C102.007 42.5903 102.096 42.4638 102.162 42.3332V40.9927H101.109C100.448 40.9927 99.9336 41.0906 99.5664 41.2865C99.1991 41.4824 99.0155 41.7905 99.0155 42.2108C99.0155 42.374 99.042 42.525 99.095 42.6638C99.1522 42.8025 99.2358 42.9229 99.346 43.0249C99.4562 43.1228 99.5949 43.2004 99.7622 43.2575C99.9295 43.3146 100.123 43.3432 100.344 43.3432Z" fill="black"/>
<path d="M105.7 34.8042H109.085V43.2269H111.245V44.2063H105.7V43.2269H107.952V35.7897H105.7V34.8042Z" fill="black"/>
<path d="M113.229 34.8042H116.614V43.2269H118.774V44.2063H113.229V43.2269H115.481V35.7897H113.229V34.8042Z" fill="black"/>
<path d="M123.506 44.3287C123.041 44.3287 122.612 44.2491 122.221 44.09C121.833 43.9308 121.5 43.7084 121.223 43.4228C120.945 43.1371 120.729 42.7984 120.574 42.4067C120.419 42.0149 120.341 41.5885 120.341 41.1274V40.8703C120.341 40.3357 120.427 39.8582 120.599 39.4379C120.77 39.0135 120.996 38.6565 121.278 38.3667C121.564 38.0729 121.886 37.8485 122.245 37.6934C122.608 37.5383 122.98 37.4608 123.359 37.4608C123.837 37.4608 124.253 37.5445 124.608 37.7118C124.967 37.875 125.265 38.1035 125.502 38.3973C125.738 38.6871 125.914 39.0298 126.028 39.4257C126.146 39.8215 126.206 40.25 126.206 40.7111V41.2192H121.474C121.486 41.5211 121.543 41.8048 121.645 42.07C121.751 42.3353 121.894 42.5679 122.074 42.7678C122.257 42.9637 122.476 43.1188 122.729 43.233C122.982 43.3473 123.261 43.4044 123.567 43.4044C123.971 43.4044 124.33 43.3228 124.645 43.1596C124.959 42.9963 125.22 42.7801 125.428 42.5107L126.12 43.0494C126.01 43.2167 125.871 43.3779 125.704 43.533C125.54 43.6839 125.351 43.8186 125.134 43.937C124.918 44.0553 124.673 44.1492 124.4 44.2185C124.126 44.292 123.828 44.3287 123.506 44.3287ZM123.359 38.3912C123.131 38.3912 122.914 38.4341 122.71 38.5198C122.506 38.6014 122.323 38.7238 122.159 38.887C121.996 39.0462 121.857 39.2441 121.743 39.4808C121.633 39.7134 121.556 39.9827 121.511 40.2888H125.073V40.2031C125.061 39.9827 125.018 39.7644 124.945 39.5481C124.875 39.3318 124.771 39.138 124.632 38.9666C124.494 38.7952 124.318 38.6565 124.106 38.5504C123.898 38.4443 123.649 38.3912 123.359 38.3912Z" fill="black"/>
<path d="M129.125 37.5832L129.205 38.5626C129.446 38.2198 129.742 37.9525 130.092 37.7607C130.443 37.5649 130.835 37.4649 131.268 37.4608C131.615 37.4608 131.929 37.5098 132.21 37.6077C132.496 37.7056 132.739 37.8587 132.939 38.0668C133.139 38.2749 133.292 38.5402 133.398 38.8625C133.508 39.1808 133.563 39.5603 133.563 40.0011V44.2063H132.431V40.0256C132.431 39.7317 132.398 39.4828 132.333 39.2788C132.268 39.0747 132.17 38.9095 132.039 38.783C131.912 38.6565 131.755 38.5646 131.568 38.5075C131.384 38.4504 131.172 38.4218 130.931 38.4218C130.552 38.4218 130.217 38.5177 129.927 38.7095C129.642 38.8972 129.413 39.1461 129.242 39.4563V44.2063H128.109V37.5832H129.125Z" fill="black"/>
<path d="M135.43 40.8397C135.43 40.3459 135.489 39.8929 135.608 39.4808C135.73 39.0645 135.905 38.7075 136.134 38.4096C136.363 38.1117 136.64 37.8791 136.966 37.7118C137.293 37.5445 137.662 37.4608 138.074 37.4608C138.482 37.4608 138.84 37.5343 139.146 37.6812C139.456 37.824 139.719 38.0321 139.935 38.3055L139.99 37.5832H141.019V44.0655C141.019 44.5021 140.949 44.8898 140.811 45.2285C140.676 45.5672 140.484 45.8549 140.235 46.0916C139.99 46.3283 139.697 46.5078 139.354 46.6303C139.011 46.7527 138.631 46.8139 138.215 46.8139C138.044 46.8139 137.848 46.7935 137.628 46.7527C137.407 46.716 137.183 46.6527 136.954 46.5629C136.73 46.4772 136.511 46.3609 136.299 46.214C136.091 46.0671 135.912 45.8855 135.761 45.6692L136.348 44.9898C136.487 45.1571 136.63 45.2979 136.777 45.4122C136.924 45.5305 137.073 45.6243 137.224 45.6937C137.375 45.7631 137.526 45.8121 137.677 45.8406C137.828 45.8733 137.979 45.8896 138.13 45.8896C138.399 45.8896 138.642 45.8508 138.858 45.7733C139.074 45.6958 139.258 45.5815 139.409 45.4305C139.564 45.2836 139.682 45.1 139.764 44.8796C139.845 44.6593 139.886 44.4062 139.886 44.1206V43.5513C139.666 43.8043 139.405 43.9982 139.103 44.1328C138.805 44.2634 138.458 44.3287 138.062 44.3287C137.658 44.3287 137.293 44.243 136.966 44.0716C136.64 43.9002 136.363 43.6635 136.134 43.3616C135.91 43.0596 135.736 42.7046 135.614 42.2965C135.491 41.8843 135.43 41.4416 135.43 40.9682V40.8397ZM136.562 40.9682C136.562 41.2906 136.595 41.5966 136.66 41.8864C136.73 42.1761 136.836 42.4312 136.979 42.6515C137.126 42.8719 137.311 43.0474 137.536 43.1779C137.76 43.3044 138.03 43.3677 138.344 43.3677C138.54 43.3677 138.715 43.3452 138.87 43.3004C139.029 43.2514 139.17 43.1841 139.293 43.0984C139.419 43.0127 139.531 42.9106 139.629 42.7923C139.727 42.674 139.813 42.5434 139.886 42.4006V39.3645C139.813 39.2257 139.727 39.0992 139.629 38.985C139.531 38.8707 139.419 38.7728 139.293 38.6911C139.166 38.6054 139.025 38.5402 138.87 38.4953C138.715 38.4463 138.544 38.4218 138.356 38.4218C138.038 38.4218 137.764 38.4871 137.536 38.6177C137.311 38.7483 137.126 38.9258 136.979 39.1502C136.836 39.3706 136.73 39.6277 136.66 39.9215C136.595 40.2112 136.562 40.5173 136.562 40.8397V40.9682Z" fill="black"/>
<path d="M146.093 44.3287C145.628 44.3287 145.199 44.2491 144.808 44.09C144.42 43.9308 144.087 43.7084 143.81 43.4228C143.532 43.1371 143.316 42.7984 143.161 42.4067C143.006 42.0149 142.928 41.5885 142.928 41.1274V40.8703C142.928 40.3357 143.014 39.8582 143.186 39.4379C143.357 39.0135 143.583 38.6565 143.865 38.3667C144.151 38.0729 144.473 37.8485 144.832 37.6934C145.195 37.5383 145.567 37.4608 145.946 37.4608C146.424 37.4608 146.84 37.5445 147.195 37.7118C147.554 37.875 147.852 38.1035 148.089 38.3973C148.325 38.6871 148.501 39.0298 148.615 39.4257C148.733 39.8215 148.793 40.25 148.793 40.7111V41.2192H144.061C144.073 41.5211 144.13 41.8048 144.232 42.07C144.338 42.3353 144.481 42.5679 144.661 42.7678C144.844 42.9637 145.063 43.1188 145.316 43.233C145.569 43.3473 145.848 43.4044 146.154 43.4044C146.558 43.4044 146.917 43.3228 147.232 43.1596C147.546 42.9963 147.807 42.7801 148.015 42.5107L148.707 43.0494C148.597 43.2167 148.458 43.3779 148.291 43.533C148.127 43.6839 147.938 43.8186 147.721 43.937C147.505 44.0553 147.26 44.1492 146.987 44.2185C146.713 44.292 146.415 44.3287 146.093 44.3287ZM145.946 38.3912C145.718 38.3912 145.501 38.4341 145.297 38.5198C145.093 38.6014 144.91 38.7238 144.746 38.887C144.583 39.0462 144.444 39.2441 144.33 39.4808C144.22 39.7134 144.142 39.9827 144.098 40.2888H147.66V40.2031C147.648 39.9827 147.605 39.7644 147.532 39.5481C147.462 39.3318 147.358 39.138 147.219 38.9666C147.081 38.7952 146.905 38.6565 146.693 38.5504C146.485 38.4443 146.236 38.3912 145.946 38.3912Z" fill="black"/>
<g clip-path="url(#clip0_96_507)">
<path d="M0.59082 1.3999H8.57082C11.2588 1.3999 13.5175 2.34257 15.3468 4.2279C17.1761 6.11323 18.0908 8.43723 18.0908 11.1999C18.0908 13.9812 17.1761 16.3146 15.3468 18.1999C13.5361 20.0666 11.2775 20.9999 8.57082 20.9999H0.59082V1.3999ZM5.74282 16.1559H8.57082C9.91482 16.1559 11.0255 15.7079 11.9028 14.8119C12.7615 13.8972 13.1908 12.6932 13.1908 11.1999C13.1908 9.6879 12.7615 8.49323 11.9028 7.6159C11.0441 6.70123 9.93349 6.2439 8.57082 6.2439H5.74282V16.1559ZM30.513 8.2879V6.9999H35.161V20.9999H30.513V19.7119C29.561 20.8319 28.2357 21.3919 26.537 21.3919C24.6517 21.3919 23.0837 20.6919 21.833 19.2919C20.5824 17.8732 19.957 16.1092 19.957 13.9999C19.957 11.8719 20.5824 10.1172 21.833 8.7359C23.0837 7.31723 24.6517 6.6079 26.537 6.6079C28.2357 6.6079 29.561 7.1679 30.513 8.2879ZM25.445 16.2119C25.9677 16.7719 26.677 17.0519 27.573 17.0519C28.469 17.0519 29.1784 16.7719 29.701 16.2119C30.2424 15.6332 30.513 14.8959 30.513 13.9999C30.513 13.1039 30.2424 12.3666 29.701 11.7879C29.1784 11.2279 28.469 10.9479 27.573 10.9479C26.677 10.9479 25.9677 11.2279 25.445 11.7879C24.9037 12.3666 24.633 13.1039 24.633 13.9999C24.633 14.8959 24.9037 15.6332 25.445 16.2119ZM42.9136 6.9999V9.6039C43.1749 8.7079 43.6882 8.0079 44.4536 7.5039C45.2376 6.98123 46.1242 6.7199 47.1136 6.7199V11.8719C46.0496 11.7039 45.0789 11.8999 44.2016 12.4599C43.3429 13.0199 42.9136 13.9346 42.9136 15.2039V20.9999H38.2656V6.9999H42.9136ZM62.7335 15.7079H53.0735C53.5402 16.8466 54.5855 17.4159 56.2095 17.4159C57.1988 17.4159 58.0482 17.0892 58.7575 16.4359L62.1175 18.7879C60.7548 20.5239 58.7482 21.3919 56.0975 21.3919C53.7268 21.3919 51.8228 20.7012 50.3855 19.3199C48.9668 17.9199 48.2575 16.1559 48.2575 14.0279C48.2575 11.9186 48.9575 10.1546 50.3575 8.7359C51.7575 7.31723 53.5402 6.6079 55.7055 6.6079C57.7962 6.6079 59.5228 7.3079 60.8855 8.7079C62.2482 10.0892 62.9295 11.8439 62.9295 13.9719C62.9295 14.6252 62.8642 15.2039 62.7335 15.7079ZM53.0175 12.4879H58.3935C58.0388 11.1812 57.1615 10.5279 55.7615 10.5279C54.3242 10.5279 53.4095 11.1812 53.0175 12.4879Z" fill="#1E12FF"/>
<path d="M72.2852 20.9999V1.3999H77.2972V20.9999H72.2852ZM79.529 1.3999H94.229V6.2439H89.385V20.9999H84.373V6.2439H79.529V1.3999Z" fill="#FF227A"/>
</g>
<defs>
<clipPath id="clip0_96_507">
<rect width="95" height="21" fill="white" transform="translate(0.0507812 1)"/>
</clipPath>
</defs>
</svg>
